<svg width="49" height="90" xmlns="http://www.w3.org/2000/svg">
 <g>
  <title>background</title>
  <rect fill="none" id="canvas_background" height="92" width="51" y="-1" x="-1"/>
 </g>

 <g>
  <title>Layer 1</title>
  <g id="svg_1">
   <path id="svg_2" d="m9.400001,40.1c3.9,3.9 9.3,6.3 15.2,6.3c5.9,0 11.2,-2.4 15.1,-6.2c0.1,-0.1 0.2,-0.2 0.3,-0.3c3.8,-3.9 6.2,-9.2 6.2,-15.1c0,-5.9 -2.4,-11.3 -6.3,-15.2c0,0 0,0 0,0c0,0 0,0 0,0c-3.9,-3.9 -9.3,-6.3 -15.2,-6.3c-5.9,0 -11.3,2.4 -15.2,6.3c0,0 0,0 0,0c0,0 0,0 0,0c-3.9,3.9 -6.3,9.3 -6.3,15.2c-0.1,5.9 2.3,11.3 6.2,15.3c0,-0.1 0,-0.1 0,0c0,-0.1 0,-0.1 0,0zm-4.3,-13.5c1.7,1 4.7,2.5 7.6,3.2c-1.6,2.5 -2.6,5.6 -3.1,7.6c-2.5,-3.1 -4.1,-6.8 -4.5,-10.8zm4.5,-14.3c0.5,1.9 1.6,5 3.1,7.6c-2.9,0.7 -5.8,2.2 -7.6,3.2c0.4,-4.1 2,-7.8 4.5,-10.8zm34.4,10.7c-1.7,-1 -4.7,-2.5 -7.6,-3.2c1.6,-2.5 2.6,-5.6 3.1,-7.6c2.6,3.1 4.2,6.8 4.5,10.8zm-4.4,14.3c-0.5,-1.9 -1.6,-5 -3.1,-7.6c2.9,-0.7 5.8,-2.2 7.6,-3.2c-0.4,4.1 -2,7.8 -4.5,10.8zm-13.7,-8.5c0.2,-0.1 0.4,-0.2 0.6,-0.2c0.2,0.1 0.4,0.2 0.6,0.3c0.4,1.1 0.7,2.4 0.8,3.9c-1,-1.1 -1.7,-2.3 -2.2,-3.3c0,-0.2 0.1,-0.5 0.2,-0.7zm2.4,-2.1c0.1,-0.2 0.2,-0.4 0.3,-0.6c0.2,-0.1 0.4,-0.1 0.7,-0.2c1.1,0.5 2.2,1.3 3.3,2.3c-1.5,-0.1 -2.8,-0.4 -3.9,-0.8c-0.2,-0.3 -0.3,-0.5 -0.4,-0.7zm0.3,-3.2c-0.1,-0.2 -0.2,-0.4 -0.3,-0.6c0.1,-0.2 0.2,-0.4 0.3,-0.6c1.1,-0.4 2.4,-0.7 3.9,-0.8c-1.1,1 -2.2,1.7 -3.3,2.3c-0.2,-0.1 -0.4,-0.2 -0.6,-0.3zm-2.1,-2.4c-0.2,-0.1 -0.4,-0.2 -0.6,-0.3c0,-0.1 -0.1,-0.3 -0.1,-0.4c0,-0.1 -0.1,-0.2 -0.1,-0.2c0.5,-1.1 1.3,-2.3 2.3,-3.3c-0.1,1.5 -0.4,2.8 -0.8,3.9c-0.3,0 -0.5,0.2 -0.7,0.3zm-3.1,-0.7c0,0.1 -0.1,0.3 -0.1,0.4c-0.2,0.1 -0.4,0.2 -0.6,0.3c-0.2,-0.1 -0.4,-0.2 -0.6,-0.3c-0.4,-1.1 -0.7,-2.4 -0.8,-3.9c1,1.1 1.7,2.2 2.3,3.3c-0.1,0 -0.1,0.1 -0.2,0.2zm-2.6,2.5c-0.1,0.2 -0.2,0.4 -0.3,0.6c-0.2,0.1 -0.4,0.1 -0.7,0.2c-1.1,-0.5 -2.2,-1.3 -3.3,-2.3c1.5,0.1 2.8,0.4 3.9,0.8c0.2,0.3 0.3,0.5 0.4,0.7zm-0.2,3.2c0.1,0.2 0.2,0.4 0.3,0.6c-0.1,0.2 -0.2,0.4 -0.3,0.6c-1.1,0.4 -2.4,0.7 -3.9,0.8c1.1,-1 2.2,-1.7 3.3,-2.3c0.1,0.2 0.4,0.2 0.6,0.3zm2.1,2.5c0.2,0.1 0.4,0.2 0.6,0.3c0,0.1 0.1,0.3 0.1,0.4c0,0.1 0.1,0.2 0.1,0.2c-0.5,1.1 -1.2,2.2 -2.2,3.4c0.1,-1.5 0.4,-2.8 0.8,-3.9c0.2,-0.2 0.4,-0.3 0.6,-0.4zm-0.7,6.3c1.1,-1.1 1.9,-2.2 2.6,-3.3c0.7,1.1 1.6,2.2 2.6,3.3c0.2,0.2 0.4,0.4 0.6,0.5c-0.5,2.9 -2.2,6.2 -3.2,8c-1,-1.8 -2.7,-5 -3.2,-8c0.2,-0.1 0.4,-0.3 0.6,-0.5zm7.4,-5.2c1.2,0.3 2.6,0.5 4.1,0.5c0.3,0 0.5,0 0.8,0c1.7,2.4 2.8,5.9 3.4,7.9c-2,-0.6 -5.5,-1.7 -7.9,-3.4c0,-0.3 0,-0.5 0,-0.8c0.1,-1.6 -0.1,-3 -0.4,-4.2zm5.3,-2.3c-1,-1 -2.2,-1.9 -3.3,-2.6c1.1,-0.7 2.2,-1.6 3.3,-2.6c0.2,-0.2 0.4,-0.4 0.5,-0.6c2.9,0.5 6.2,2.2 8,3.2c-1.8,1 -5,2.7 -8,3.2c-0.2,-0.2 -0.3,-0.4 -0.5,-0.6zm-1.1,-7.9c-1.5,0 -2.9,0.2 -4.1,0.5c0.3,-1.2 0.5,-2.6 0.5,-4.1c0,-0.3 0,-0.5 0,-0.8c2.4,-1.7 5.9,-2.8 7.9,-3.4c-0.6,2 -1.7,5.5 -3.4,7.9c-0.4,-0.1 -0.7,-0.1 -0.9,-0.1zm-6.4,-4.8c-1,1 -1.9,2.2 -2.6,3.3c-0.7,-1.1 -1.6,-2.2 -2.6,-3.3c-0.2,-0.2 -0.4,-0.4 -0.6,-0.5c0.5,-2.9 2.2,-6.2 3.2,-8c1,1.8 2.7,5 3.2,8c-0.2,0.1 -0.4,0.3 -0.6,0.5zm-7.5,5.3c-1.2,-0.3 -2.6,-0.5 -4.1,-0.5c-0.3,0 -0.5,0 -0.8,0c-1.7,-2.4 -2.8,-5.9 -3.4,-7.9c2,0.6 5.5,1.7 7.9,3.4c0,0.3 0,0.5 0,0.8c0,1.5 0.1,2.9 0.4,4.2zm-5.2,2.2c1,1 2.2,1.9 3.3,2.6c-1.1,0.7 -2.2,1.6 -3.3,2.6c-0.2,0.2 -0.4,0.4 -0.5,0.6c-2.9,-0.5 -6.2,-2.2 -8,-3.2c1.8,-1 5,-2.7 8,-3.2c0.1,0.2 0.3,0.4 0.5,0.6zm1.1,7.9c1.5,0 2.9,-0.2 4.1,-0.5c-0.3,1.2 -0.5,2.6 -0.5,4.1c0,0.3 0,0.5 0,0.8c-2.4,1.7 -5.9,2.8 -7.9,3.4c0.6,-2 1.7,-5.5 3.4,-7.9c0.4,0.1 0.6,0.1 0.9,0.1zm4.1,6.6c0.7,2.9 2.2,5.8 3.1,7.6c-4.1,-0.4 -7.8,-2 -10.7,-4.4c1.9,-0.6 5,-1.6 7.6,-3.2zm9.8,0c2.5,1.6 5.6,2.6 7.6,3.1c-3,2.5 -6.7,4.1 -10.7,4.4c0.9,-1.7 2.4,-4.6 3.1,-7.5zm0,-23.8c-0.7,-2.9 -2.2,-5.8 -3.2,-7.6c4.1,0.4 7.8,2 10.7,4.4c-1.8,0.6 -5,1.7 -7.5,3.2zm-9.8,0c-2.5,-1.6 -5.6,-2.6 -7.6,-3.1c3,-2.5 6.7,-4.1 10.7,-4.4c-1,1.7 -2.5,4.6 -3.1,7.5z" fill="#ffffff"/>
   <path id="svg_3" d="m38.800001,55.7l-0.3,-1.6l0.2,0c0.5,-0.1 0.9,-0.6 0.8,-1.2c-0.1,-0.5 -0.6,-0.9 -1.2,-0.8l-0.2,0l0,-0.2l0.2,0c0.5,-0.1 0.9,-0.6 0.8,-1.2c-0.1,-0.5 -0.6,-0.9 -1.2,-0.8l-0.2,0l-0.7,-3.8c7.4,-4.3 12.4,-12.3 12.4,-21.4c0,-13.6 -11.1,-24.7 -24.7,-24.7c-13.6,0 -24.7,11.1 -24.7,24.7c0,9.3 5.2,17.5 12.9,21.7l-0.7,3.5l-0.2,0c-0.5,-0.1 -1,0.2 -1.2,0.8c-0.1,0.5 0.2,1 0.8,1.2l0.2,0l0,0.2l-0.2,0c-0.5,-0.1 -1,0.2 -1.2,0.8c-0.1,0.5 0.2,1 0.8,1.2l0.2,0l-0.5,1.6c-2.5,0.4 -4.8,3.8 -5.7,8.5c-1,4.9 1.5,13 1.6,13.3c0.1,0.3 0.4,0.6 0.8,0.7c0.1,0 0.1,0 0.2,0c0.3,0 0.6,-0.1 0.8,-0.4c0.2,-0.3 5.5,-6.9 6.5,-11.7c0.5,-2.4 0.5,-4.8 0,-6.6c-0.4,-1.6 -1.1,-2.8 -2.1,-3.4l0.3,-1.6l0.2,0c0.1,0 0.1,0 0.2,0c0.5,0 0.9,-0.3 1,-0.8c0.1,-0.5 -0.2,-1 -0.8,-1.2l-0.2,0l0,-0.2l0.2,0c0.1,0 0.1,0 0.2,0c0.5,0 0.9,-0.3 1,-0.8c0.1,-0.5 -0.2,-1 -0.8,-1.2l-0.2,0l0.6,-3c2.8,1.2 5.8,2 9,2.1l0,12.1l-0.2,0c-0.5,0 -1,0.4 -1,1s0.4,1 1,1l0.2,0l0,0.2l-0.2,0c-0.5,0 -1,0.4 -1,1s0.4,1 1,1l0.2,0l0,1.7c-2.3,0.8 -4,4.6 -4,9.4c0,5 3.9,12.4 4.1,12.8c0.2,0.3 0.5,0.5 0.9,0.5s0.7,-0.2 0.9,-0.5c0.2,-0.3 4.1,-7.8 4.1,-12.8c0,-4.8 -1.7,-8.6 -4,-9.4l0,-1.7l0,0c0.5,0 1,-0.4 1,-1s-0.4,-1 -1,-1l-0.2,0l0,-0.2l0.2,0c0.5,0 1,-0.4 1,-1s-0.4,-1 -1,-1l-0.2,0l0,-12c3.4,-0.1 6.6,-1 9.5,-2.3l0.6,3.2l-0.2,0c-0.5,0.1 -0.9,0.6 -0.8,1.2c0.1,0.5 0.5,0.8 1,0.8c0.1,0 0.1,0 0.2,0l0.2,0l0,0.2l-0.2,0c-0.5,0.1 -0.9,0.6 -0.8,1.2c0.1,0.5 0.5,0.8 1,0.8c0.1,0 0.1,0 0.2,0l0.2,0l0.3,1.6c-1,0.6 -1.7,1.7 -2.1,3.4c-0.5,1.9 -0.4,4.2 0,6.6c1,4.9 6.3,11.5 6.5,11.7c0.2,0.2 0.5,0.4 0.8,0.4c0.1,0 0.1,0 0.2,0c0.4,-0.1 0.6,-0.3 0.8,-0.7c0.1,-0.3 2.5,-8.5 1.6,-13.3c-0.9,-4.7 -3.3,-8.2 -5.7,-8.6zm-31.5,15.3l0.7,-0.5l-0.4,2.2c-0.1,-0.6 -0.2,-1.2 -0.3,-1.7zm3.1,-2.5c0,0 0,0 0,0l0.4,-2l1.2,1.8c0,0 0.1,0.1 0.1,0.1c-0.7,1.6 -1.7,3.2 -2.6,4.6l0.9,-4.5zm-1.1,-4.7c0,0 0,0 0,0l-0.8,4l-1.5,1c-0.1,-1.5 -0.1,-3 0.1,-4.2c0,0 0,-0.1 0,-0.1l2.4,-1.6l-0.2,0.9zm1.2,-5.8l-0.4,2.2l-2,1.4c0.6,-1.8 1.5,-3.1 2.4,-3.6zm2.6,2c0.4,1.6 0.4,3.7 0,5.8c0,0.1 -0.1,0.2 -0.1,0.4l-1.6,-2.4l0.6,-2.8c0,0 0,0 0,0l0.5,-2.6c0.2,0.4 0.4,0.9 0.6,1.6zm8.5,16.8c0,0 0,-0.1 0,-0.1l2,-2l0,4.9l-1.3,1.3c-0.4,-1.4 -0.7,-2.9 -0.7,-4.1zm2,5.6l0,2.2c-0.2,-0.5 -0.4,-1 -0.6,-1.6l0.6,-0.6zm2,-4.4l1.5,1.5c0,0 0.1,0.1 0.1,0.1c-0.4,1.7 -1,3.5 -1.7,5l0,-6.6l0.1,0zm-2,-8.3l0,2.2l-1.7,1.7c0.3,-1.9 1,-3.2 1.7,-3.9zm4,7.1c0,0.1 0,0.3 0,0.4l-2,-2l0,-5.5c1,1 2,3.5 2,7.1zm-25.8,-52c0,-12.5 10.2,-22.7 22.7,-22.7c12.5,0 22.7,10.2 22.7,22.7s-10.1,22.7 -22.6,22.7c-12.6,0 -22.8,-10.2 -22.8,-22.7zm37.5,43.7c0,0 0,0 0,0l0.9,4.5c-0.9,-1.4 -1.9,-3 -2.6,-4.6c0,0 0.1,-0.1 0.1,-0.1l1.2,-1.8l0.4,2zm2.4,2l0.7,0.5c-0.1,0.6 -0.2,1.1 -0.3,1.7l-0.4,-2.2zm-0.6,-2.7l-1,-4.8l2.4,1.6c0,0 0,0.1 0,0.1c0.2,1.2 0.2,2.7 0.1,4.2l-1.5,-1.1zm0.6,-6.3l-2,-1.4l-0.4,-2.2c0.7,0.6 1.6,1.9 2.4,3.6zm-5.1,-1.5c0.2,-0.7 0.4,-1.2 0.6,-1.6l0.5,2.6c0,0 0,0 0,0l0.6,2.8l-1.6,2.4c0,-0.1 -0.1,-0.3 -0.1,-0.4c-0.3,-2.2 -0.4,-4.2 0,-5.8z" fill="#ffffff"/>
  </g>
 </g>
</svg>