<?xml version="1.0" encoding="utf-8"?>
<!-- Generator: Adobe Illustrator 19.2.0, SVG Export Plug-In . SVG Version: 6.00 Build 0)  -->
<svg version="1.1" id="Calque_1" xmlns="http://www.w3.org/2000/svg" xmlns:xlink="http://www.w3.org/1999/xlink" x="0px" y="0px"
	 viewBox="0 0 16 16" style="enable-background:new 0 0 16 16;" xml:space="preserve">
<style type="text/css">
	.st0{fill:#C1272D;}
	.st1{fill:#962529;}
</style>
<path class="st1" d="M10.5,9.6C10.5,9.7,10.5,9.7,10.5,9.6c0.2,0,0.2,0.1,0.2,0.1c0,0.1,0,0.2-0.1,0.2c0,0,0,0,0,0
	c0,0.1,0,0.2,0,0.2c0,0,0,0,0,0c0.2,0.1,0.4,0.2,0.5,0.4c0.3,0.4,0.4,0.9,0.4,1.5c0,0.6-0.1,1.1-0.3,1.7c0,0.1-0.1,0.1-0.1,0.1
	C11.1,14,11,14,11,14c-0.4-0.5-0.8-1.1-1-1.8c-0.1-0.5-0.2-0.9,0-1.4c0.1-0.2,0.1-0.3,0.3-0.4c0,0,0,0,0,0c0.1-0.1,0-0.2,0-0.3
	c0,0,0,0-0.1,0C10,10.1,10,10,9.9,9.9c0-0.1,0-0.2,0.1-0.2c0,0,0,0,0,0c0,0,0,0-0.1,0c-0.1,0-0.2-0.1-0.2-0.1c0-0.1,0-0.2,0.1-0.2
	c0,0,0,0,0,0C10,9.2,10,9,9.9,8.8c-0.5,0.2-1,0.4-1.6,0.4c0,0.7,0,1.3,0,2c0.1,0,0.2,0,0.2,0.1c0,0.1,0,0.1,0,0.2c0,0-0.1,0-0.2,0.1
	c0.1,0,0.2,0.1,0.2,0.2c0,0.1-0.1,0.1-0.2,0.2c0,0.1,0,0.2,0,0.3c0,0,0,0,0,0c0.2,0.1,0.4,0.3,0.5,0.6c0.2,0.5,0.2,1.1,0.1,1.7
	c-0.1,0.5-0.3,1-0.6,1.4c0,0-0.1,0.1-0.1,0.1c-0.1,0.1-0.2,0-0.2-0.1c-0.2-0.4-0.4-0.8-0.5-1.2c-0.1-0.4-0.2-0.7-0.2-1.1
	c0-0.3,0.1-0.7,0.2-1c0.1-0.2,0.2-0.3,0.4-0.4c0,0,0,0,0-0.1c0-0.1,0-0.1,0-0.2c0,0,0,0,0-0.1c-0.1,0-0.1-0.1-0.1-0.2
	c0-0.1,0.1-0.2,0.1-0.2c0,0,0,0,0.1,0c-0.1,0-0.2-0.1-0.2-0.2c0-0.1,0.1-0.1,0.2-0.1c0,0,0-0.1,0-0.1c0-0.6,0-1.2,0-1.9
	c0-0.1,0-0.1-0.1-0.1c-0.5,0-0.9-0.1-1.3-0.3c0,0-0.1,0-0.1,0c0,0.2-0.1,0.3-0.1,0.5c0.1,0,0.2,0.1,0.2,0.2c0,0.1-0.1,0.1-0.2,0.2
	c0.1,0.1,0.2,0.1,0.2,0.2c0,0.1-0.1,0.1-0.2,0.1c0,0.1,0,0.2,0,0.2c0,0,0,0,0,0c0.2,0.2,0.3,0.4,0.3,0.7c0.1,0.5,0,1-0.2,1.5
	c-0.2,0.5-0.5,0.9-0.8,1.3c0,0-0.1,0.1-0.1,0.1c-0.1,0.1-0.3,0.1-0.3,0c-0.1-0.2-0.1-0.3-0.1-0.5C5,13,4.9,12.6,4.9,12.1
	c0-0.6,0.1-1.1,0.5-1.6c0.1-0.2,0.3-0.3,0.5-0.3c0,0,0,0,0,0C6,10.2,6,10.1,6,10c-0.1,0-0.1-0.1-0.1-0.1c0-0.1,0-0.1,0-0.2
	c0,0,0.1,0,0.2-0.1c0,0,0,0-0.1,0c-0.1,0-0.1-0.1-0.1-0.2c0-0.1,0.1-0.1,0.2-0.1c0,0,0.1,0,0.1-0.1c0-0.2,0.1-0.3,0.1-0.5
	c0,0,0-0.1,0-0.1c-0.8-0.5-1.4-1.2-1.8-2C4.2,6,4.1,5.4,4.1,4.8c0.1-1,0.5-1.9,1.2-2.6c0.6-0.6,1.3-1,2.1-1.1c1.4-0.3,2.6,0.1,3.7,1
	c0.7,0.6,1.1,1.5,1.2,2.4c0.2,1.1-0.1,2.2-0.8,3.1c-0.3,0.4-0.7,0.8-1.2,1c0,0-0.1,0.1-0.1,0.1c0,0.2,0.1,0.3,0.1,0.5
	c0,0,0,0.1,0.1,0.1c0.1,0,0.2,0.1,0.2,0.1C10.6,9.5,10.6,9.6,10.5,9.6C10.5,9.6,10.5,9.6,10.5,9.6C10.5,9.6,10.5,9.6,10.5,9.6z
	 M8.2,8.9c2.1,0,3.8-1.7,3.8-3.8c0-2.1-1.7-3.8-3.8-3.8C6.1,1.3,4.4,3,4.4,5.1C4.4,7.2,6.1,8.9,8.2,8.9z M6.2,10.7
	C6.2,10.7,6.2,10.7,6.2,10.7c-0.1,0.2-0.1,0.4-0.1,0.6c-0.1,0.2,0,0.4,0.1,0.5c0,0,0.1,0.1,0.1,0.1c0,0,0,0,0,0
	C6.4,11.6,6.4,11.1,6.2,10.7z M8.4,12.6C8.4,12.6,8.4,12.6,8.4,12.6c0,0.3,0,0.6,0,0.9c0,0,0,0,0,0c0.1,0.1,0.2,0.2,0.3,0.3
	c0,0,0,0,0,0C8.7,13.4,8.7,13,8.4,12.6z M10.3,10.7c-0.2,0.4-0.2,0.8-0.1,1.3c0.1-0.1,0.1-0.2,0.2-0.3c0-0.1,0.1-0.1,0-0.2
	C10.4,11.3,10.4,11,10.3,10.7z M8,13.4C8,13.4,8,13.4,8,13.4c-0.1,0.1-0.2,0.2-0.3,0.3c0,0,0,0,0,0.1c0,0.1,0,0.2,0,0.3
	c0,0.1,0,0.2,0.1,0.3c0,0,0,0,0,0c0-0.1,0.1-0.1,0.1-0.2c0,0,0-0.1,0-0.1C8,14,8,13.7,8,13.4C8,13.5,8,13.5,8,13.4z M5.3,12.4
	C5.3,12.4,5.3,12.4,5.3,12.4c0.1,0,0.1-0.1,0.2-0.1c0,0,0.1-0.1,0.1-0.1c0-0.2,0.1-0.3,0.1-0.5c0-0.1,0-0.2,0.1-0.3
	c-0.1,0-0.1,0.1-0.2,0.1c-0.2,0.1-0.3,0.2-0.2,0.4C5.3,12.1,5.3,12.3,5.3,12.4z M11.2,12.5c0-0.2,0-0.4,0-0.6c0-0.1,0-0.2-0.1-0.2
	c-0.1,0-0.2-0.1-0.3-0.2c0,0,0,0,0,0c0,0.2,0.1,0.5,0.2,0.7c0,0,0,0,0,0C11,12.3,11.1,12.4,11.2,12.5z M8.4,15C8.4,15,8.4,15,8.4,15
	c0.1-0.3,0.2-0.5,0.3-0.8c0,0,0,0,0,0c-0.1-0.1-0.2-0.2-0.3-0.3c0,0,0,0,0,0C8.4,14.3,8.4,14.7,8.4,15z M10.8,13.1
	C10.8,13.1,10.8,13.1,10.8,13.1c0-0.4-0.1-0.7-0.2-1.1c-0.1,0.1-0.1,0.2-0.2,0.3c0,0,0,0.1,0,0.1c0.1,0.1,0.2,0.3,0.2,0.4
	C10.7,13,10.7,13,10.8,13.1z M5.7,13.1C5.7,13.1,5.7,13.1,5.7,13.1c0.2-0.2,0.3-0.4,0.4-0.7c0,0,0-0.1,0-0.1C6,12.3,6,12.2,5.9,12.1
	c0,0,0,0,0-0.1c0,0,0,0,0,0C5.8,12.4,5.8,12.8,5.7,13.1z M5.5,11.2C5.5,11.2,5.5,11.2,5.5,11.2c0.1-0.1,0.2-0.1,0.3-0.2c0,0,0,0,0,0
	c0-0.1,0-0.2,0.1-0.3c0,0,0,0,0,0C5.6,10.8,5.5,11,5.5,11.2z M8,12.6C8,12.6,8,12.6,8,12.6c-0.2,0.2-0.2,0.4-0.3,0.6
	C7.9,13.1,7.9,13.1,8,13c0,0,0,0,0,0C8,12.8,8,12.7,8,12.6z M10.7,10.6C10.7,10.6,10.7,10.6,10.7,10.6c0,0.1,0,0.2,0,0.3
	c0,0,0,0,0,0c0.1,0.1,0.2,0.1,0.3,0.2c0,0,0,0,0,0C11,11,10.8,10.8,10.7,10.6z M8,14.7C8,14.7,8,14.7,8,14.7C8,14.8,7.9,14.8,8,14.7
	C8,14.9,8,15,8,15c0,0,0,0,0,0C8,14.9,8,14.8,8,14.7z M5.4,12.7C5.4,12.7,5.4,12.7,5.4,12.7c0,0-0.1,0-0.1,0.1c0,0.1,0,0.2,0,0.2
	c0,0,0,0,0,0C5.4,13,5.4,12.8,5.4,12.7z M11.1,13.1C11.1,13.1,11.1,13.1,11.1,13.1c0-0.1,0-0.1,0.1-0.2c0-0.1,0-0.1-0.1-0.1
	C11.1,12.9,11.1,13,11.1,13.1z"/>
<path class="st1" d="M4.6,5.1c0-2,1.7-3.7,3.7-3.6c1.9,0.1,3.5,1.7,3.5,3.7c-0.1,1.9-1.7,3.5-3.7,3.5C6.2,8.7,4.6,7.1,4.6,5.1z
	 M11.3,5.1C11.3,5.1,11.3,5.1,11.3,5.1C11.2,5,11.1,5,11,4.9c-0.3-0.1-0.6-0.3-0.9-0.3c0,0-0.1,0-0.1,0C9.8,4.7,9.6,4.9,9.4,5.1
	c0,0,0,0-0.1,0c0,0,0.1,0,0.1,0.1c0.2,0.1,0.4,0.3,0.5,0.4c0,0,0.1,0,0.1,0c0.2,0,0.5-0.1,0.7-0.2C10.9,5.3,11.1,5.2,11.3,5.1z
	 M8.2,4C8.2,3.9,8.2,3.9,8.2,4c0.2-0.2,0.3-0.4,0.4-0.5c0.1-0.1,0.1-0.1,0.1-0.2C8.6,2.8,8.4,2.4,8.2,2c0,0,0,0,0,0
	C8.1,2.1,8.1,2.3,8,2.4C7.9,2.7,7.7,2.9,7.7,3.3c0,0,0,0.1,0,0.1c0.1,0.1,0.1,0.2,0.2,0.2C8,3.7,8.1,3.8,8.2,4z M5.1,5.1
	C5.1,5.1,5.2,5.1,5.1,5.1c0.2,0.1,0.3,0.1,0.4,0.2c0.3,0.1,0.6,0.3,0.9,0.3c0,0,0.1,0,0.1,0C6.6,5.5,6.8,5.3,7,5.1c0,0,0,0,0,0
	c0,0,0,0-0.1,0C6.8,4.9,6.7,4.8,6.5,4.6c0,0-0.1,0-0.1,0C5.9,4.7,5.5,4.9,5.1,5.1C5.1,5.1,5.1,5.1,5.1,5.1z M8.2,6.2
	C8.2,6.3,8.2,6.3,8.2,6.2C8,6.5,7.9,6.6,7.7,6.8c0,0-0.1,0.1,0,0.1C7.8,7.4,8,7.8,8.2,8.2c0,0,0,0,0,0c0,0,0,0,0-0.1
	C8.3,8,8.4,7.8,8.5,7.6c0.1-0.2,0.1-0.4,0.2-0.7c0,0,0-0.1,0-0.1C8.6,6.7,8.5,6.6,8.3,6.4C8.3,6.3,8.2,6.3,8.2,6.2z M7.4,4.3
	C7.4,4.3,7.4,4.3,7.4,4.3c0-0.3,0-0.5-0.1-0.7c0-0.1,0-0.1-0.1-0.2C6.9,3.2,6.5,3,6.1,2.9c0,0,0,0-0.1,0C6,3,6.1,3.1,6.1,3.2
	c0.1,0.3,0.2,0.6,0.4,0.9c0,0,0.1,0.1,0.1,0.1c0.1,0,0.1,0,0.2,0C7,4.2,7.2,4.3,7.4,4.3z M9,5.9C9,5.9,9,5.9,9,5.9
	c0.1,0.3,0.1,0.5,0.1,0.8c0,0.1,0,0.1,0.1,0.1c0.3,0.2,0.6,0.3,1,0.4c0.1,0,0.2,0.1,0.3,0.1c0,0,0-0.1,0-0.1c0-0.1-0.1-0.2-0.1-0.4
	C10.1,6.6,10,6.3,9.9,6.1c0,0,0-0.1-0.1-0.1C9.5,6,9.3,6,9,5.9z M10.4,2.9C10.4,2.9,10.4,2.9,10.4,2.9C10.2,3,10.1,3,10,3
	C9.7,3.1,9.4,3.3,9.2,3.4c-0.1,0-0.1,0.1-0.1,0.1c0,0.2,0,0.3,0,0.5c0,0.1,0,0.2,0,0.2c0,0,0,0,0,0c0,0,0.1,0,0.1,0
	c0.2,0,0.5-0.1,0.7-0.1c0,0,0.1,0,0.1,0C10.1,3.8,10.3,3.4,10.4,2.9C10.4,2.9,10.4,2.9,10.4,2.9z M7.4,5.9C7.4,5.9,7.3,5.9,7.4,5.9
	C7.1,6,6.9,6,6.6,6C6.6,6,6.5,6,6.5,6C6.3,6.3,6.2,6.7,6.1,7C6,7.1,6,7.2,6,7.3c0.2-0.1,0.3-0.1,0.4-0.1C6.7,7.1,7,6.9,7.3,6.8
	c0,0,0.1-0.1,0.1-0.1c0-0.1,0-0.2,0-0.3C7.3,6.2,7.4,6,7.4,5.9z M11.5,5.4c-0.4,0.2-0.8,0.4-1.3,0.5c0.2,0.4,0.4,0.8,0.5,1.3
	C11.1,6.9,11.5,5.8,11.5,5.4z M5,4.8c0.4-0.2,0.8-0.4,1.3-0.5C6.1,4.1,6,3.9,5.9,3.7C5.8,3.5,5.8,3.2,5.7,3C5.4,3.3,4.9,4.4,5,4.8z
	 M7.4,7.1C7,7.3,6.6,7.5,6.1,7.6C6.5,8,7.6,8.4,7.9,8.3C7.8,8.1,7.7,7.9,7.6,7.7C7.5,7.5,7.5,7.3,7.4,7.1z M10.7,3
	c-0.1,0.5-0.3,0.9-0.5,1.3c0.2,0.1,0.4,0.2,0.6,0.2c0.2,0.1,0.4,0.2,0.6,0.3C11.4,4.1,11.1,3.5,10.7,3z M10.3,2.6
	C9.8,2.1,9.2,1.9,8.5,1.8C8.7,2.3,8.9,2.7,9,3.1C9.4,2.9,9.8,2.7,10.3,2.6z M8.5,8.3c0.4,0.1,1.6-0.4,1.8-0.7C9.8,7.5,9.4,7.3,9,7.1
	C8.9,7.5,8.7,7.9,8.5,8.3z M4.9,5.4C5,6.1,5.3,6.7,5.7,7.2C5.8,6.8,6,6.3,6.2,5.9C5.8,5.8,5.4,5.6,4.9,5.4z M6.1,2.6
	C6.6,2.7,7,2.9,7.4,3.1c0.1-0.2,0.1-0.4,0.2-0.6c0.1-0.2,0.2-0.4,0.3-0.6C7.2,1.9,6.6,2.2,6.1,2.6z M9.5,5.7C9.4,5.5,9.2,5.4,9,5.3
	c-0.1,0-0.1,0-0.2,0.1c0,0,0,0.1,0.1,0.2C9.1,5.6,9.3,5.7,9.5,5.7z M6.9,4.5C6.9,4.5,6.9,4.5,6.9,4.5C7,4.7,7.2,4.8,7.4,4.9
	c0,0,0.1,0,0.1,0c0.1-0.1,0-0.2-0.1-0.2c-0.1,0-0.2-0.1-0.3-0.1C7.1,4.6,7,4.5,6.9,4.5z M8.8,3.8C8.8,3.8,8.8,3.8,8.8,3.8
	C8.6,3.9,8.5,4.1,8.4,4.3c0,0,0,0.1,0,0.1c0,0,0.1,0,0.1,0c0.1,0,0.1-0.1,0.1-0.1c0-0.1,0-0.1,0-0.2C8.7,4,8.8,3.9,8.8,3.8z
	 M9.5,4.6c-0.2,0-0.4,0-0.6,0.1c-0.1,0-0.1,0.1-0.1,0.1c0,0.1,0.1,0.1,0.2,0.1C9.2,4.8,9.4,4.7,9.5,4.6z M6.9,5.6
	C6.9,5.6,6.9,5.6,6.9,5.6C6.9,5.6,7,5.7,6.9,5.6c0.3,0,0.4,0,0.6-0.1c0.1,0,0.1-0.1,0.1-0.1c0-0.1,0-0.1-0.1-0.1c-0.1,0-0.1,0-0.1,0
	C7.2,5.4,7,5.5,6.9,5.6z M7.7,3.8C7.7,3.8,7.7,3.8,7.7,3.8c0,0.2,0,0.4,0.1,0.6c0,0.1,0.1,0.1,0.2,0.1C8,4.4,8,4.3,8,4.3
	C7.9,4.2,7.9,4.1,7.8,4C7.8,3.9,7.7,3.9,7.7,3.8z M8.7,6.4C8.7,6.4,8.8,6.4,8.7,6.4c0-0.2,0-0.4-0.1-0.6c0-0.1-0.1-0.1-0.2-0.1
	c-0.1,0-0.1,0.1,0,0.2C8.5,6,8.6,6.2,8.6,6.3C8.7,6.3,8.7,6.4,8.7,6.4z M7.7,6.4C7.7,6.4,7.7,6.4,7.7,6.4C7.8,6.3,7.9,6.1,8,5.9
	c0-0.1,0-0.2-0.1-0.2c-0.1,0-0.1,0-0.2,0.1c0,0.1-0.1,0.2-0.1,0.4C7.7,6.3,7.7,6.4,7.7,6.4z"/>
</svg>
